<svg width="60" height="55" viewBox="0 0 60 55" fill="none" xmlns="http://www.w3.org/2000/svg">
<g filter="url(#filter0_d_1_6)">
<path d="M47.3074 33.846C45.6025 33.8482 43.9465 34.4157 42.5987 35.4596C41.2508 36.5036 40.2872 37.965 39.8587 39.6151H16.5384C14.4983 39.6151 12.5417 38.8047 11.0991 37.3621C9.65656 35.9196 8.84613 33.963 8.84613 31.9229C8.84613 29.8828 9.65656 27.9262 11.0991 26.4836C12.5417 25.0411 14.4983 24.2306 16.5384 24.2306H39.6151C42.1653 24.2306 44.611 23.2176 46.4142 21.4144C48.2174 19.6112 49.2305 17.1655 49.2305 14.6153C49.2305 12.0652 48.2174 9.61948 46.4142 7.81626C44.611 6.01304 42.1653 5 39.6151 5H16.5384C16.0284 5 15.5392 5.20261 15.1786 5.56325C14.8179 5.9239 14.6153 6.41304 14.6153 6.92306C14.6153 7.43309 14.8179 7.92223 15.1786 8.28287C15.5392 8.64352 16.0284 8.84613 16.5384 8.84613H39.6151C41.1452 8.84613 42.6126 9.45395 43.6946 10.5359C44.7765 11.6178 45.3843 13.0852 45.3843 14.6153C45.3843 16.1454 44.7765 17.6128 43.6946 18.6948C42.6126 19.7767 41.1452 20.3845 39.6151 20.3845H16.5384C13.4782 20.3845 10.5434 21.6002 8.37951 23.764C6.21565 25.9279 5 28.8627 5 31.9229C5 34.9831 6.21565 37.9179 8.37951 40.0818C10.5434 42.2456 13.4782 43.4613 16.5384 43.4613H39.8587C40.2182 44.8544 40.9613 46.1188 42.0035 47.1108C43.0457 48.1028 44.3452 48.7826 45.7544 49.0731C47.1636 49.3635 48.626 49.2529 49.9755 48.7538C51.325 48.2548 52.5075 47.3872 53.3887 46.2498C54.2698 45.1124 54.8143 43.7506 54.9603 42.3192C55.1063 40.8878 54.8479 39.4441 54.2145 38.1522C53.5811 36.8603 52.5981 35.772 51.3772 35.0107C50.1562 34.2495 48.7462 33.846 47.3074 33.846ZM47.3074 45.3843C46.5467 45.3843 45.8031 45.1588 45.1706 44.7361C44.5381 44.3135 44.0451 43.7128 43.754 43.0101C43.4629 42.3073 43.3868 41.5339 43.5352 40.7879C43.6836 40.0418 44.0499 39.3565 44.5878 38.8186C45.1257 38.2807 45.811 37.9144 46.5571 37.766C47.3031 37.6176 48.0765 37.6937 48.7792 37.9848C49.482 38.276 50.0827 38.7689 50.5053 39.4014C50.9279 40.0339 51.1535 40.7775 51.1535 41.5382C51.1524 42.5579 50.7468 43.5355 50.0257 44.2566C49.3047 44.9776 48.3271 45.3832 47.3074 45.3843Z" fill="#FAC400"/>
</g>
<defs>
<filter id="filter0_d_1_6" x="0" y="0" width="60" height="54.2314" filterUnits="userSpaceOnUse" color-interpolation-filters="sRGB">
<feFlood flood-opacity="0" result="BackgroundImageFix"/>
<feColorMatrix in="SourceAlpha" type="matrix" values="0 0 0 0 0 0 0 0 0 0 0 0 0 0 0 0 0 0 127 0" result="hardAlpha"/>
<feOffset/>
<feGaussianBlur stdDeviation="2.5"/>
<feComposite in2="hardAlpha" operator="out"/>
<feColorMatrix type="matrix" values="0 0 0 0 0 0 0 0 0 0 0 0 0 0 0 0 0 0 0.15 0"/>
<feBlend mode="normal" in2="BackgroundImageFix" result="effect1_dropShadow_1_6"/>
<feBlend mode="normal" in="SourceGraphic" in2="effect1_dropShadow_1_6" result="shape"/>
</filter>
</defs>
</svg>
